<svg xmlns="http://www.w3.org/2000/svg" width="43.81" height="44" viewBox="0 0 43.81 44">
  <g id="Group_667" data-name="Group 667" transform="translate(268.269 736.073)">
    <path id="Path_515" data-name="Path 515" d="M-209.451-717.174h0v-11.918a1.437,1.437,0,0,0-.719-1.245l-9.6-5.544a1.438,1.438,0,0,0-1.438,0l-9.6,5.544a1.438,1.438,0,0,0-.719,1.245V-718a1.438,1.438,0,0,1-.71,1.24l-9.444,5.54a1.437,1.437,0,0,0-.71,1.24v10.926a1.437,1.437,0,0,0,.71,1.24l9.443,5.54a1.439,1.439,0,0,0,1.432.013l10.32-5.795h0l10.32,5.795a1.437,1.437,0,0,0,1.432-.013l9.443-5.54a1.437,1.437,0,0,0,.71-1.24v-10.926a1.438,1.438,0,0,0-.71-1.24Z" transform="translate(-25.873)" fill="#0c0c0c"/>
  </g>
</svg>
