<svg xmlns="http://www.w3.org/2000/svg" width="220.87" height="44" viewBox="0 0 220.87 44">
  <g id="Group_682" data-name="Group 682" transform="translate(-375 -7582.297)">
    <g id="Group_664" data-name="Group 664" transform="translate(22.215 -535.703)">
      <text id="SHIPPINGLINE" transform="translate(402.656 8151.501)" fill="#f9f9f9" font-size="27" font-family="SegoeUI, Segoe UI"><tspan x="0" y="0">SHIPPINGLINE</tspan></text>
      <path id="Path_515" data-name="Path 515" d="M-209.451-717.174h0v-11.918a1.437,1.437,0,0,0-.719-1.245l-9.6-5.544a1.438,1.438,0,0,0-1.438,0l-9.6,5.544a1.438,1.438,0,0,0-.719,1.245V-718a1.438,1.438,0,0,1-.71,1.24l-9.444,5.54a1.437,1.437,0,0,0-.71,1.24v10.926a1.437,1.437,0,0,0,.71,1.24l9.443,5.54a1.439,1.439,0,0,0,1.432.013l10.32-5.795h0l10.32,5.795a1.437,1.437,0,0,0,1.432-.013l9.443-5.54a1.437,1.437,0,0,0,.71-1.24v-10.926a1.438,1.438,0,0,0-.71-1.24Z" transform="translate(595.182 8854.073)" fill="#0c0c0c"/>
      <g id="Group_564" data-name="Group 564" transform="translate(364.989 8119.792)">
        <g id="Group_563" data-name="Group 563" transform="translate(0 0)">
          <g id="Group_559" data-name="Group 559" transform="translate(1.417)">
            <path id="Path_516" data-name="Path 516" d="M-199.324-731.457l2.489,1.436a.5.5,0,0,1,.006.86l-7.739,4.6a.5.5,0,0,1-.51,0l-2.5-1.489a.5.5,0,0,1,0-.858l7.748-4.543A.5.5,0,0,1-199.324-731.457Z" transform="translate(207.82 731.523)" fill="#989a9b"/>
          </g>
          <g id="Group_560" data-name="Group 560" transform="translate(6.77 2.988)">
            <path id="Path_517" data-name="Path 517" d="M-193.983-718.424l2.494,1.439a.5.5,0,0,0,.5,0l7.795-4.505a.5.5,0,0,0,0-.864l-2.641-1.519a.5.5,0,0,0-.5,0l-7.648,4.585A.5.5,0,0,0-193.983-718.424Z" transform="translate(194.232 723.939)" fill="#989a9b"/>
          </g>
          <g id="Group_561" data-name="Group 561" transform="translate(0 6.863)">
            <path id="Path_518" data-name="Path 518" d="M-202.525-709.021v9.146a.5.5,0,0,1-.748.431l-7.9-4.571a.5.5,0,0,1-.249-.431V-713.6a.5.5,0,0,1,.749-.431l7.9,4.582A.5.5,0,0,1-202.525-709.021Z" transform="translate(211.418 714.102)" fill="#989a9b"/>
          </g>
          <g id="Group_562" data-name="Group 562" transform="translate(10.632 6.875)">
            <path id="Path_519" data-name="Path 519" d="M-184.43-708.906v9.05a.5.5,0,0,0,.748.431l7.83-4.522a.5.5,0,0,0,.249-.432v-9.193a.5.5,0,0,0-.754-.428l-7.829,4.666A.5.5,0,0,0-184.43-708.906Z" transform="translate(184.43 714.071)" fill="#989a9b"/>
          </g>
        </g>
      </g>
      <g id="Group_570" data-name="Group 570" transform="translate(354.337 8138.246)">
        <g id="Group_569" data-name="Group 569" transform="translate(0)">
          <g id="Group_565" data-name="Group 565" transform="translate(1.417)">
            <path id="Path_520" data-name="Path 520" d="M-226.365-684.615l2.489,1.435a.5.5,0,0,1,.005.86l-7.739,4.6a.5.5,0,0,1-.51,0l-2.5-1.489a.5.5,0,0,1,0-.858l7.749-4.542A.5.5,0,0,1-226.365-684.615Z" transform="translate(234.861 684.681)" fill="#989a9b"/>
          </g>
          <g id="Group_566" data-name="Group 566" transform="translate(6.77 2.988)">
            <path id="Path_521" data-name="Path 521" d="M-221.023-671.582l2.493,1.439a.5.5,0,0,0,.5,0l7.795-4.505a.5.5,0,0,0,0-.864l-2.641-1.519a.5.5,0,0,0-.5,0l-7.648,4.585A.5.5,0,0,0-221.023-671.582Z" transform="translate(221.272 677.097)" fill="#989a9b"/>
          </g>
          <g id="Group_567" data-name="Group 567" transform="translate(0 6.863)">
            <path id="Path_522" data-name="Path 522" d="M-229.565-662.179v9.146a.5.5,0,0,1-.749.431l-7.9-4.571a.5.5,0,0,1-.249-.431v-9.156a.5.5,0,0,1,.748-.431l7.9,4.582A.5.5,0,0,1-229.565-662.179Z" transform="translate(238.458 667.26)" fill="#989a9b"/>
          </g>
          <g id="Group_568" data-name="Group 568" transform="translate(10.632 6.875)">
            <path id="Path_523" data-name="Path 523" d="M-211.47-662.064v9.05a.5.5,0,0,0,.748.431l7.829-4.522a.5.5,0,0,0,.249-.432v-9.193a.5.5,0,0,0-.754-.428l-7.83,4.666A.5.5,0,0,0-211.47-662.064Z" transform="translate(211.47 667.229)" fill="#989a9b"/>
          </g>
        </g>
      </g>
      <g id="Group_576" data-name="Group 576" transform="translate(375.754 8138.246)">
        <g id="Group_575" data-name="Group 575" transform="translate(0)">
          <g id="Group_571" data-name="Group 571" transform="translate(1.417)">
            <path id="Path_524" data-name="Path 524" d="M-172-684.615l2.488,1.435a.5.5,0,0,1,.006.86l-7.739,4.6a.5.5,0,0,1-.51,0l-2.5-1.489a.5.5,0,0,1,0-.858l7.748-4.542A.5.5,0,0,1-172-684.615Z" transform="translate(180.494 684.681)" fill="#989a9b"/>
          </g>
          <g id="Group_572" data-name="Group 572" transform="translate(6.77 2.988)">
            <path id="Path_525" data-name="Path 525" d="M-166.657-671.582l2.494,1.439a.5.5,0,0,0,.5,0l7.8-4.505a.5.5,0,0,0,0-.864l-2.641-1.519a.5.5,0,0,0-.505,0l-7.648,4.585A.5.5,0,0,0-166.657-671.582Z" transform="translate(166.906 677.097)" fill="#989a9b"/>
          </g>
          <g id="Group_573" data-name="Group 573" transform="translate(0 6.863)">
            <path id="Path_526" data-name="Path 526" d="M-175.2-662.179v9.146a.5.5,0,0,1-.748.431l-7.9-4.571a.5.5,0,0,1-.249-.431v-9.156a.5.5,0,0,1,.748-.431l7.9,4.582A.5.5,0,0,1-175.2-662.179Z" transform="translate(184.091 667.26)" fill="#989a9b"/>
          </g>
          <g id="Group_574" data-name="Group 574" transform="translate(10.631 6.875)">
            <path id="Path_527" data-name="Path 527" d="M-157.1-662.064v9.05a.5.5,0,0,0,.748.431l7.829-4.522a.5.5,0,0,0,.249-.432v-9.193a.5.5,0,0,0-.754-.428l-7.829,4.666A.5.5,0,0,0-157.1-662.064Z" transform="translate(157.104 667.229)" fill="#989a9b"/>
          </g>
        </g>
      </g>
    </g>
  </g>
</svg>
