<svg id="Group_665" data-name="Group 665" xmlns="http://www.w3.org/2000/svg" xmlns:xlink="http://www.w3.org/1999/xlink" width="48.249" height="48.249" viewBox="0 0 48.249 48.249">
  <defs>
    <clipPath id="clip-path">
      <rect id="Rectangle_216" data-name="Rectangle 216" width="48.249" height="48.249" transform="translate(0 0)" fill="#fff"/>
    </clipPath>
  </defs>
  <g id="Group_646" data-name="Group 646" clip-path="url(#clip-path)">
    <path id="Path_535" data-name="Path 535" d="M48.244,22.758l-.031-.19c-.02-.121-.041-.241-.051-.362a23.741,23.741,0,0,0-1-5.212A1.661,1.661,0,0,0,45.6,15.758a1.6,1.6,0,0,0-1.348.623,1.906,1.906,0,0,0-.266,1.744,19.853,19.853,0,0,1-.519,13.493,20.253,20.253,0,0,1-16.163,13.02,19.084,19.084,0,0,1-13.429-2.471C6.389,37.679,2.882,30.976,3.454,22.243A19.463,19.463,0,0,1,9.1,9.8a20.427,20.427,0,0,1,14.023-6.4,20.233,20.233,0,0,1,7.063.873,1.705,1.705,0,0,0,2.24-1.044,1.649,1.649,0,0,0-.112-1.3,1.848,1.848,0,0,0-1.169-.871c-1.112-.3-2.02-.515-2.857-.676C27.682.262,27.069.185,26.456.107L25.636,0,22.58,0l-.818.108c-.6.078-1.195.156-1.789.256A24.124,24.124,0,0,0,.673,18.545c-.191.821-.307,1.662-.419,2.475C.2,21.4.148,21.786.088,22.167c-.013.083-.032.166-.05.248L0,22.6,0,25.67l.111.829c.078.593.155,1.187.254,1.778a23.966,23.966,0,0,0,18.594,19.4c.745.156,1.5.254,2.239.349.356.046.712.092,1.064.145a1.293,1.293,0,0,1,.152.036l.229.045,3.022-.005.817-.11c.6-.079,1.193-.158,1.786-.255A24.161,24.161,0,0,0,47.687,29.195c.151-.749.247-1.511.341-2.249.045-.353.09-.706.14-1.058.012-.084.03-.166.047-.249l.034-.223Z" fill="#fff"/>
    <path id="Path_536" data-name="Path 536" d="M26.872,8.408a1.767,1.767,0,0,0-1.764-1.287h-.483a19.732,19.732,0,0,0-2.76.121A16.951,16.951,0,0,0,7.47,26.872,17.121,17.121,0,0,0,24.221,41.115h.036l.036-.005c.369-.05.742-.089,1.114-.128A17.251,17.251,0,0,0,27.9,40.6c7.114-1.826,11.482-6.384,12.981-13.547a16.4,16.4,0,0,0,.224-3.473l0-.666a1.615,1.615,0,0,0-.535-1.225,1.676,1.676,0,0,0-1.312-.407,1.734,1.734,0,0,0-1.505,1.879l0,.2a17.848,17.848,0,0,1-.093,2.662A13.6,13.6,0,0,1,22.293,37.538a13.63,13.63,0,0,1-4.515-25.5A13.1,13.1,0,0,1,25.1,10.482a1.706,1.706,0,0,0,1.484-.6,1.594,1.594,0,0,0,.285-1.479" fill="#fff"/>
    <path id="Path_537" data-name="Path 537" d="M30.756,11.325c.007.416,0,.833,0,1.249l-.006,1.047c0,.41-.009.82.013,1.228a.573.573,0,0,1-.228.5q-2.931,2.91-5.846,5.836l-1.456,1.456a4.4,4.4,0,0,0-.364.4,1.669,1.669,0,0,0,1.3,2.695,1.691,1.691,0,0,0,1-.335,4.205,4.205,0,0,0,.465-.423l.946-.946q3.182-3.178,6.355-6.365a.561.561,0,0,1,.445-.183c.705.01,1.41.008,2.116.008.48,0,.96,0,1.44,0a2.073,2.073,0,0,0,1.514-.618q3.4-3.415,6.814-6.816a1.7,1.7,0,0,0,.466-1.964,1.665,1.665,0,0,0-1.695-1.02c-.646.007-1.293.006-1.938,0h-.825a.338.338,0,0,1-.11,0c0-.026,0-.055,0-.086l0-.766c0-.665,0-1.331,0-2a1.662,1.662,0,0,0-1.048-1.733,1.711,1.711,0,0,0-1.951.493q-3.384,3.4-6.783,6.782a2.047,2.047,0,0,0-.639,1.556m3.369,2.8v-.176c0-.732,0-1.449.006-2.162l0,0q1.844-1.849,3.694-3.692,0,.275,0,.546a1.684,1.684,0,0,0,1.788,1.779l.541,0-.186.187c-1.127,1.13-2.254,2.261-3.394,3.378a.547.547,0,0,1-.3.126c-.628.022-1.258.019-1.908.014Z" fill="#fff"/>
    <path id="Path_538" data-name="Path 538" d="M21.792,17.968a8.786,8.786,0,0,1,1.943-.4l.511-.071a1.717,1.717,0,0,0,1.625-1.783,1.658,1.658,0,0,0-1.8-1.575,11.119,11.119,0,0,0-1.629.165,9.9,9.9,0,0,0,1.753,19.653H24.2a9.932,9.932,0,0,0,9.909-9.418,2.24,2.24,0,0,0-.473-1.657,1.583,1.583,0,0,0-1.135-.5c-.813-.033-1.691.47-1.757,1.98a6.556,6.556,0,1,1-8.956-6.387" fill="#fff"/>
  </g>
</svg>
